<svg xmlns="http://www.w3.org/2000/svg">
  <symbol id="apple-logo" viewBox="0 0 47 56" fill="none">
    <path d="M39.2449 29.7391C39.2544 32.1546 39.994 34.5144 41.3723 36.5268C42.7506 38.5393 44.7071 40.1162 47 41.0627C46.0779 43.8922 44.7301 46.5744 43.0003 49.0227C40.5985 52.4356 38.0949 55.8386 34.1562 55.9273C30.2176 56.0161 29.0676 53.708 24.6303 53.708C20.193 53.708 18.8292 55.8583 15.1654 55.9964C11.5016 56.1345 8.47889 52.2778 6.07705 48.8846C1.1207 41.98 -2.67543 29.246 2.41322 20.6842C3.60995 18.6123 5.34099 16.8769 7.43708 15.6476C9.53317 14.4183 11.9225 13.7373 14.3716 13.6711C18.0964 13.6021 21.6178 16.0976 23.8975 16.0976C26.1772 16.0976 30.4619 13.0892 34.9602 13.533C37.0437 13.6063 39.0815 14.1457 40.9142 15.1091C42.7468 16.0725 44.3247 17.4337 45.5243 19.0863C45.2495 19.254 39.2144 22.657 39.2754 29.7391H39.2449ZM31.9783 8.93654C34.1591 6.45976 35.2387 3.24645 34.9806 0C31.6761 0.302095 28.6167 1.81996 26.4317 4.2414C24.5692 6.33251 22.9307 9.68618 23.3785 12.9018C26.625 13.1484 29.9327 11.3038 31.9478 8.95627" fill="white"/>
  </symbol>
  <symbol id="android-logo" viewBox="0 0 43 50" fill="none">
    <path d="M34.8864 14.0617H8.11359C8.11359 14.1718 8.11359 14.282 8.11359 14.3922V33.1955C8.10298 34.1078 8.44648 34.99 9.0745 35.6633C9.70251 36.3367 10.5681 36.7508 11.496 36.8219V44.2751C11.5402 45.0122 11.8701 45.7048 12.4181 46.2114C12.9661 46.7179 13.6909 47 14.444 47C15.1972 47 15.9219 46.7179 16.4699 46.2114C17.0179 45.7048 17.3478 45.0122 17.3921 44.2751V36.842H25.6283V44.2751C25.6726 45.0122 26.0025 45.7048 26.5505 46.2114C27.0985 46.7179 27.8232 47 28.5764 47C29.3296 47 30.0543 46.7179 30.6023 46.2114C31.1503 45.7048 31.4802 45.0122 31.5245 44.2751V36.8219C32.4532 36.7509 33.32 36.3371 33.9496 35.664C34.5793 34.991 34.925 34.1088 34.917 33.1955V14.4023C34.9068 14.2921 34.8966 14.1819 34.8864 14.0617Z" fill="#A4C639"/>
    <path d="M2.95318 15.7446C3.73371 15.7446 4.48226 16.0486 5.03417 16.5897C5.58609 17.1307 5.89615 17.8646 5.89615 18.6297V31.0317C5.89749 31.4114 5.82236 31.7876 5.67507 32.1388C5.52777 32.49 5.31121 32.8093 5.03779 33.0782C4.76438 33.3472 4.4395 33.5606 4.08177 33.7062C3.72405 33.8518 3.34052 33.9268 2.95318 33.9268C2.16995 33.9268 1.4188 33.6218 0.864967 33.0788C0.311138 32.5359 0 31.7995 0 31.0317V18.6297C-2.33488e-06 18.25 0.076457 17.874 0.224993 17.5233C0.37353 17.1726 0.591221 16.8541 0.865584 16.5861C1.13995 16.3181 1.46558 16.1058 1.82382 15.9614C2.18206 15.817 2.56585 15.7433 2.95318 15.7446Z" fill="#A4C639"/>
    <path d="M40.057 15.7446C40.8375 15.7446 41.5861 16.0486 42.138 16.5897C42.6899 17.1307 43 17.8646 43 18.6297V31.0317C43.0013 31.4114 42.9262 31.7876 42.7789 32.1388C42.6316 32.49 42.415 32.8093 42.1416 33.0782C41.8682 33.3472 41.5433 33.5606 41.1856 33.7062C40.8279 33.8518 40.4444 33.9268 40.057 33.9268C39.2738 33.9268 38.5226 33.6218 37.9688 33.0788C37.415 32.5359 37.1038 31.7995 37.1038 31.0317V18.6297C37.1038 18.25 37.1803 17.874 37.3288 17.5233C37.4774 17.1726 37.6951 16.8541 37.9694 16.5861C38.2438 16.3181 38.5694 16.1058 38.9277 15.9614C39.2859 15.817 39.6697 15.7433 40.057 15.7446Z" fill="#A4C639"/>
    <path d="M8.1749 12.0581H34.7433C34.6757 9.30184 33.5048 6.68226 31.4836 4.76521L34.0485 0.497656C34.0753 0.460664 34.0936 0.418348 34.1019 0.373689C34.1103 0.32903 34.1086 0.283115 34.0969 0.239179C34.0852 0.195243 34.0638 0.154355 34.0343 0.119396C34.0047 0.0844363 33.9677 0.0562562 33.9258 0.0368408C33.8548 -0.000483829 33.7719 -0.00986479 33.6941 0.010608C33.6163 0.0310808 33.5493 0.079868 33.5069 0.147036L31.0851 4.30439C28.3256 2.19779 24.9549 1.00508 21.4591 0.898365C17.9845 1.03299 14.6384 2.22325 11.8843 4.30439L9.50332 0.187107C9.46579 0.112239 9.39997 0.0546621 9.31983 0.0266048C9.2397 -0.00145257 9.15156 0.00221937 9.07414 0.0368408C9.00488 0.0802746 8.95485 0.147693 8.93402 0.225666C8.91319 0.303639 8.92308 0.386444 8.96174 0.457585L11.4551 4.69508C9.41279 6.62849 8.2336 9.27542 8.1749 12.0581ZM25.8736 6.84889C25.8736 6.45036 26.0351 6.06816 26.3225 5.78635C26.61 5.50455 26.9998 5.34623 27.4064 5.34623C27.8129 5.34623 28.2028 5.50455 28.4902 5.78635C28.7777 6.06816 28.9391 6.45036 28.9391 6.84889C28.9391 7.24742 28.7777 7.62963 28.4902 7.91143C28.2028 8.19324 27.8129 8.35155 27.4064 8.35155C26.9998 8.35155 26.61 8.19324 26.3225 7.91143C26.0351 7.62963 25.8736 7.24742 25.8736 6.84889ZM14.49 6.84889C14.49 6.45036 14.6515 6.06816 14.939 5.78635C15.2264 5.50455 15.6163 5.34623 16.0228 5.34623C16.4293 5.34623 16.8192 5.50455 17.1067 5.78635C17.3941 6.06816 17.5556 6.45036 17.5556 6.84889C17.5556 7.24742 17.3941 7.62963 17.1067 7.91143C16.8192 8.19324 16.4293 8.35155 16.0228 8.35155C15.6163 8.35155 15.2264 8.19324 14.939 7.91143C14.6515 7.62963 14.49 7.24742 14.49 6.84889Z" fill="#A4C639"/>
  </symbol>
  <symbol id="microsoft-logo" viewBox="0 0 44 44" fill="none">
    <path d="M20.908 19.5238H0V0H20.908V19.5238Z" fill="#F05423"/>
    <path d="M44 19.5238H23.092V0H44V19.5238Z" fill="#84C441"/>
    <path d="M20.908 41H0V21.4762H20.908V41Z" fill="#2DABE2"/>
    <path d="M44 41H23.092V21.4762H44V41Z" fill="#F9BC15"/>
  </symbol>
  <symbol id="left-arrow" viewBox="0 0 22 41" fill="none">
    <path opacity="0.3" d="M2.0413 20.5035L21.7483 1.4144C21.8281 1.3379 21.8914 1.24683 21.9346 1.14646C21.9778 1.04608 22 0.938398 22 0.829635C22 0.720871 21.9778 0.613187 21.9346 0.512814C21.8914 0.41244 21.8281 0.321369 21.7483 0.24487C21.6686 0.167255 21.5738 0.105671 21.4694 0.0636507C21.365 0.0216304 21.2532 0 21.1401 0C21.0271 0 20.9153 0.0216304 20.8109 0.0636507C20.7065 0.105671 20.6117 0.167255 20.532 0.24487L0.252535 19.9088C0.17249 19.9862 0.108978 20.0781 0.0656429 20.1793C0.0223074 20.2805 0 20.389 0 20.4985C0 20.6081 0.0223074 20.7166 0.0656429 20.8178C0.108978 20.919 0.17249 21.0109 0.252535 21.0883L20.532 40.7621C20.6967 40.9157 20.9167 41.001 21.1453 41C21.3139 40.9985 21.4783 40.9488 21.6181 40.8572C21.7578 40.7656 21.8666 40.6362 21.9309 40.485C21.9952 40.3339 22.0122 40.1677 21.9797 40.0072C21.9473 39.8467 21.8668 39.6991 21.7483 39.5827L2.0413 20.5035Z" fill="#283645"/>
  </symbol>
  <symbol id="right-arrow" viewBox="0 0 22 41" fill="none">
    <path opacity="0.3" d="M19.9587 20.4965L0.251671 39.5856C0.171938 39.6621 0.108643 39.7532 0.065443 39.8535C0.0222435 39.9539 0 40.0616 0 40.1704C0 40.2791 0.0222435 40.3868 0.065443 40.4872C0.108643 40.5876 0.171938 40.6786 0.251671 40.7551C0.33144 40.8327 0.426224 40.8943 0.530588 40.9363C0.634953 40.9784 0.746847 41 0.859852 41C0.972857 41 1.08475 40.9784 1.18911 40.9363C1.29348 40.8943 1.38826 40.8327 1.46803 40.7551L21.7475 21.0912C21.8275 21.0138 21.891 20.9219 21.9344 20.8207C21.9777 20.7195 22 20.611 22 20.5015C22 20.3919 21.9777 20.2834 21.9344 20.1822C21.891 20.081 21.8275 19.9891 21.7475 19.9117L1.46803 0.237877C1.30326 0.0842934 1.08329 -0.00102615 0.85474 7.62939e-06C0.6861 0.00154114 0.52166 0.0511971 0.381939 0.14278C0.24222 0.234364 0.133411 0.363811 0.069088 0.51498C0.00476646 0.666149 -0.0122204 0.83234 0.0202503 0.992809C0.052721 1.15328 0.133209 1.30093 0.251671 1.41732L19.9587 20.4965Z" fill="#283645"/>
  </symbol>
  <symbol id="hit-ribbon" viewBox="0 0 74 74" fill="none">
    <path d="M74 0L37 37L0 74V41L41 0H74Z" fill="#D22856"/>
    <path d="M27.9192 37.3147L26.9863 38.2476L21.9785 37.0392L23.1531 42.0808L22.2831 42.9509L20.9393 36.9087L15.3757 35.7244L16.2844 34.8157L20.8378 35.8598L19.8082 31.2919L20.6831 30.417L21.8384 35.9516L27.9192 37.3147ZM21.8722 29.2279L22.6408 28.4593L26.5706 32.3892C27.2956 33.1142 27.9289 33.7925 28.4702 34.4242L28.5089 34.3855L26.5754 24.5247L27.4745 23.6256L34.5414 30.6925L33.768 31.4659L29.8769 27.5748C29.2291 26.927 28.5766 26.2197 27.9192 25.4527L27.8757 25.4962L29.8382 35.3957L28.9391 36.2948L21.8722 29.2279ZM38.6549 26.579L37.8332 27.4007L31.4962 21.0637L29.2581 23.3017L28.5283 22.5718L33.826 17.2741L34.5559 18.004L32.3179 20.242L38.6549 26.579Z" fill="white"/>
  </symbol>
  <symbol id="icon-yes" viewBox="0 0 31 21" fill="none">
    <path d="M30.5559 0.429509C30.4134 0.293412 30.2439 0.185389 30.0571 0.111671C29.8703 0.0379536 29.67 0 29.4676 0C29.2653 0 29.065 0.0379536 28.8782 0.111671C28.6914 0.185389 28.5219 0.293412 28.3794 0.429509L10.3744 17.4958L2.5777 10.1097C2.28714 9.85325 1.90283 9.71362 1.50573 9.72025C1.10864 9.72689 0.72977 9.87928 0.448939 10.1453C0.168108 10.4114 0.00724504 10.7703 0.0002388 11.1464C-0.00676744 11.5226 0.140631 11.8867 0.41138 12.1619L9.29124 20.5741C9.4331 20.7094 9.60187 20.8167 9.7878 20.8898C9.97372 20.9629 10.1731 21.0004 10.3744 21C10.7806 20.9986 11.1698 20.8456 11.4576 20.5741L30.5559 2.48172C30.8405 2.20822 31 1.83963 31 1.45561C31 1.0716 30.8405 0.703003 30.5559 0.429509Z" fill="#3DC644"/>
  </symbol>
  <symbol id="icon-no" viewBox="0 0 27 27" fill="none">
    <path d="M15.6444 13.5065L26.5531 2.58654C26.6947 2.44667 26.8071 2.28009 26.8838 2.09645C26.9605 1.91281 27 1.71577 27 1.51674C27 1.31772 26.9605 1.12068 26.8838 0.937041C26.8071 0.753403 26.6947 0.58682 26.5531 0.446952C26.268 0.165899 25.8837 0.00834432 25.4834 0.00834432C25.0831 0.00834432 24.6988 0.165899 24.4137 0.446952L13.505 11.3669L2.58626 0.446952C2.44641 0.305366 2.27984 0.192953 2.09622 0.11623C1.9126 0.0395068 1.71558 0 1.51658 0C1.31758 0 1.12056 0.0395068 0.936941 0.11623C0.753322 0.192953 0.586757 0.305366 0.446904 0.446952C0.165882 0.73209 0.00834343 1.11638 0.00834343 1.51674C0.00834343 1.91711 0.165882 2.3014 0.446904 2.58654L11.3657 13.5065L0.446904 24.4164C0.305333 24.5562 0.192932 24.7228 0.116217 24.9064C0.0395025 25.0901 0 25.2871 0 25.4861C0 25.6852 0.0395025 25.8822 0.116217 26.0658C0.192932 26.2495 0.305333 26.4161 0.446904 26.5559C0.730723 26.8394 1.11545 26.9987 1.51658 26.9987C1.91771 26.9987 2.30244 26.8394 2.58626 26.5559L13.505 15.6461L24.4137 26.5559C24.698 26.839 25.0823 26.9985 25.4834 27C25.7826 26.9997 26.075 26.9108 26.3237 26.7444C26.5724 26.5781 26.7662 26.3417 26.8806 26.0653C26.9951 25.7888 27.0251 25.4847 26.9668 25.1912C26.9085 24.8977 26.7645 24.6281 26.5531 24.4164L15.6444 13.5065Z" fill="#F25B26"/>
  </symbol>
  <symbol id="icon-twitter" viewBox="0 0 18 14" fill="none">
    <path d="M11.5641 0.168904C12.2458 -0.0461515 12.9837 -0.0560928 13.6719 0.140507C14.3602 0.337107 14.9633 0.730138 15.3947 1.26319C16.1053 1.05385 16.8055 0.815959 17.5263 0.606617C17.5164 0.925848 17.4299 1.23907 17.2732 1.52372C17.1165 1.80837 16.8935 2.05738 16.6201 2.2528C16.8726 2.27877 17.1281 2.25112 17.3673 2.17197C17.6064 2.09281 17.8228 1.96424 18 1.79606C17.901 2.20987 17.6999 2.59695 17.4123 2.92708C17.1247 3.2572 16.7585 3.52144 16.3421 3.69916C16.095 9.96988 12.9748 14.1662 5.65332 13.9949H5.14874C4.70595 13.9949 0.731121 13.5667 0 12.2441C1.75201 12.4899 3.53888 12.0976 4.98398 11.1498C3.95423 10.8643 2.13158 10.7026 1.82265 8.40934C2.2108 8.54337 2.6321 8.57306 3.03776 8.49498C1.76087 7.70519 0.339817 7.0391 0.422197 4.99327C0.819634 5.29882 1.3269 5.45507 1.84325 5.43098C1.10183 5.20261 -0.24714 2.30989 0.895881 0.825474C2.82151 2.54778 4.86041 4.17493 8.48512 4.3367C8.71167 2.20522 9.68993 0.777896 11.5641 0.168904Z" fill="#D22856"/>
  </symbol>
  <symbol id="icon-facebook" viewBox="0 0 9 18" fill="none">
    <path d="M6.50865 3.19324H9V0H6.02076C2.76125 0.171067 1.59862 2.27138 2.07612 5.81626H0V9.15206H2.07612V18H6.02076V9.15206H8.97924V5.81626H6.01038C5.98962 4.81837 5.96886 3.52587 6.50865 3.19324Z" fill="#D22856"/>
  </symbol>
  <symbol id="icon-youtube" viewBox="0 0 15 13" fill="none">
    <path d="M1.83356 12.8089C1.64633 12.9278 1.42471 12.9941 1.19626 12.9996C0.967817 13.0051 0.74263 12.9495 0.548717 12.8398C0.354804 12.7301 0.200724 12.571 0.105646 12.3824C0.010569 12.1938 -0.0213097 11.984 0.0139762 11.779V1.22097C-0.0213097 1.01605 0.010569 0.806234 0.105646 0.617628C0.200724 0.429021 0.354804 0.269949 0.548717 0.1602C0.74263 0.0504516 0.967817 -0.00512927 1.19626 0.000372265C1.42471 0.0058738 1.64633 0.0722149 1.83356 0.191142L14.2333 5.69284C15.2556 6.13817 15.2556 6.86183 14.2333 7.30716L1.83356 12.8089Z" fill="#D22856"/>
  </symbol>
  <symbol id="icon-htmlacademy" viewBox="0 0 27 34">
    <path d="M13.6426 0.0157537L13.5 0L0 1.40733V26.0129L13.5 34L27 26.0129V1.40733L13.6426 0.0157537ZM25.2344 25.0151L13.5 31.9573L1.76561 25.0151V14.9293L13.4507 21.8451L13.4701 23.0984L5.45351 18.3548L5.44295 19.5801L13.4894 24.3885L13.5088 25.675L5.46408 20.9174L5.45351 22.1427L13.5 26.9511L21.6239 22.1182V20.8929V16.909L25.2432 14.7595L25.2344 25.0151ZM25.2344 13.4519L22.0147 15.3319L20.5325 16.2071L13.4666 12.0201L13.456 13.2454L19.4957 16.818L19.4429 16.8495L19.3126 16.9247L18.4536 17.4166L13.4666 14.4689L13.456 15.6942L17.3921 18.0222L16.4591 18.6314L16.438 18.6436L13.4666 16.902L13.456 18.1273L15.4029 19.2615L13.4155 20.4483L1.7973 13.5762L13.4349 6.61831L25.2344 13.4519ZM25.2344 12.2266L13.4401 5.31075L1.76561 12.2196V2.9897L13.5 1.76442L25.2344 2.9897V12.2266Z"/>
  </symbol>
</svg>
